<?xml version="1.0"?>
<svg xmlns="http://www.w3.org/2000/svg" version="1.1" width="600px" height="600px" viewBox="0 0 200 200" style="overflow:hidden!important;">
  <defs id="SvgjsDefs3425">
    <radialGradient id="SvgjsRadialGradient3491" cx="100" cy="114" r="41" gradientUnits="userSpaceOnUse" class="svga-on-canvas-facehighlight-gradient-single-0">
      <stop id="SvgjsStop3492" stop-opacity="0.5" stop-color="#dcbaa4" offset="0"/>
      <stop id="SvgjsStop3493" stop-opacity="0" stop-color="#cda184" offset="0.9"/>
    </radialGradient>
    <radialGradient id="SvgjsRadialGradient3495" cx="100" cy="54" r="37" gradientUnits="userSpaceOnUse" class="svga-on-canvas-facehighlight-gradient-single-1">
      <stop id="SvgjsStop3496" stop-opacity="0.5" stop-color="#dcbaa4" offset="0"/>
      <stop id="SvgjsStop3497" stop-opacity="0" stop-color="#cda184" offset="0.9"/>
    </radialGradient>
    <linearGradient id="SvgjsLinearGradient3649" x1="100" y1="172" x2="100" y2="128.5" gradientUnits="userSpaceOnUse" class="svga-on-canvas-chinshadow-gradient-single-0">
      <stop id="SvgjsStop3650" stop-opacity="0.8" stop-color="#be8a67" offset="0"/>
      <stop id="SvgjsStop3651" stop-opacity="1" stop-color="#9f6037" offset="0.7"/>
    </linearGradient>
    <linearGradient id="SvgjsLinearGradient3684" x1="100" y1="142" x2="100" y2="139" gradientUnits="userSpaceOnUse" class="svga-on-canvas-mouth-gradient-single-0">
      <stop id="SvgjsStop3685" stop-opacity="1" stop-color="#c59575" offset="0.1"/>
      <stop id="SvgjsStop3686" stop-opacity="1" stop-color="#be8a67" offset="1"/>
    </linearGradient>
    <radialGradient id="SvgjsRadialGradient3732" cx="129.041" cy="83.945" r="15.117" gradientTransform="matrix(-0.9945 0.1042 0.1042 0.9945 192.8281 -12.4633)" gradientUnits="userSpaceOnUse" class="svga-on-canvas-eyesback-gradient-left-0">
      <stop id="SvgjsStop3733" stop-opacity="1" stop-color="#ffffff" offset="0"/>
      <stop id="SvgjsStop3734" stop-opacity="1" stop-color="#fcfdfd" offset="0.315"/>
      <stop id="SvgjsStop3735" stop-opacity="1" stop-color="#f4f7f8" offset="0.504"/>
      <stop id="SvgjsStop3736" stop-opacity="1" stop-color="#e5ecef" offset="0.66"/>
      <stop id="SvgjsStop3737" stop-opacity="1" stop-color="#d8e2e7" offset="0.76"/>
    </radialGradient>
    <radialGradient id="SvgjsRadialGradient3739" cx="128.643" cy="83.986" r="15.116" gradientTransform="matrix(0.9945 0.1042 -0.1042 0.9945 7.1738 -12.4633)" gradientUnits="userSpaceOnUse" class="svga-on-canvas-eyesback-gradient-right-0">
      <stop id="SvgjsStop3740" stop-opacity="1" stop-color="#ffffff" offset="0"/>
      <stop id="SvgjsStop3741" stop-opacity="1" stop-color="#fcfdfd" offset="0.316"/>
      <stop id="SvgjsStop3742" stop-opacity="1" stop-color="#f4f7f8" offset="0.505"/>
      <stop id="SvgjsStop3743" stop-opacity="1" stop-color="#e5ecef" offset="0.661"/>
      <stop id="SvgjsStop3744" stop-opacity="1" stop-color="#d8e2e7" offset="0.76"/>
    </radialGradient>
    <radialGradient id="SvgjsRadialGradient3746" cx="129.041" cy="83.945" r="15.117" gradientTransform="matrix(-0.9945 0.1042 0.1042 0.9945 192.8281 -12.4633)" gradientUnits="userSpaceOnUse" class="svga-on-canvas-eyesfront-gradient-left-0">
      <stop id="SvgjsStop3747" stop-opacity="1" stop-color="#ffffff" offset="0"/>
      <stop id="SvgjsStop3748" stop-opacity="1" stop-color="#fcfdfd" offset="0.316"/>
      <stop id="SvgjsStop3749" stop-opacity="1" stop-color="#f4f7f8" offset="0.505"/>
      <stop id="SvgjsStop3750" stop-opacity="1" stop-color="#e5ecef" offset="0.661"/>
      <stop id="SvgjsStop3751" stop-opacity="1" stop-color="#d8e2e7" offset="0.76"/>
    </radialGradient>
    <radialGradient id="SvgjsRadialGradient3755" cx="121.986" cy="82.496" fx="133.239" fy="82.527" r="16.003" gradientTransform="matrix(0.9998 0.0208 0.0166 -0.7998 -45.3195 145.9395)" gradientUnits="userSpaceOnUse" class="svga-on-canvas-eyesfront-gradient-left-3">
      <stop id="SvgjsStop3756" stop-opacity="1" stop-color="#be8a67" offset="0"/>
      <stop id="SvgjsStop3757" stop-opacity="0.3" stop-color="#be8a67" offset="0.7"/>
      <stop id="SvgjsStop3758" stop-opacity="0" stop-color="#cda184" offset="1"/>
    </radialGradient>
    <radialGradient id="SvgjsRadialGradient3760" cx="68.931" cy="105.995" r="29.524" gradientTransform="matrix(1.0336 0 0 1.0336 -1.6796 1.3127)" gradientUnits="userSpaceOnUse" class="svga-on-canvas-eyesfront-gradient-left-4">
      <stop id="SvgjsStop3761" stop-opacity="0" stop-color="#000000" offset="0.95"/>
      <stop id="SvgjsStop3762" stop-opacity="0.2" stop-color="#000000" offset="1"/>
    </radialGradient>
    <radialGradient id="SvgjsRadialGradient3766" cx="128.643" cy="83.986" r="15.116" gradientTransform="matrix(0.9945 0.1042 -0.1042 0.9945 7.1738 -12.4633)" gradientUnits="userSpaceOnUse" class="svga-on-canvas-eyesfront-gradient-right-0">
      <stop id="SvgjsStop3767" stop-opacity="1" stop-color="#ffffff" offset="0"/>
      <stop id="SvgjsStop3768" stop-opacity="1" stop-color="#fcfdfd" offset="0.316"/>
      <stop id="SvgjsStop3769" stop-opacity="1" stop-color="#f4f7f8" offset="0.505"/>
      <stop id="SvgjsStop3770" stop-opacity="1" stop-color="#e5ecef" offset="0.661"/>
      <stop id="SvgjsStop3771" stop-opacity="1" stop-color="#d8e2e7" offset="0.76"/>
    </radialGradient>
    <radialGradient id="SvgjsRadialGradient3775" cx="121.587" cy="82.496" fx="132.839" fy="82.527" r="16.003" gradientTransform="matrix(-0.9998 0.0208 -0.0166 -0.7998 244.5208 145.9478)" gradientUnits="userSpaceOnUse" class="svga-on-canvas-eyesfront-gradient-right-3">
      <stop id="SvgjsStop3776" stop-opacity="1" stop-color="#be8a67" offset="0"/>
      <stop id="SvgjsStop3777" stop-opacity="0.3" stop-color="#be8a67" offset="0.7"/>
      <stop id="SvgjsStop3778" stop-opacity="0" stop-color="#cda184" offset="1"/>
    </radialGradient>
    <radialGradient id="SvgjsRadialGradient3780" cx="69.316" cy="105.995" r="29.524" gradientTransform="matrix(-1.0336 0 0 1.0336 201.6796 1.3127)" gradientUnits="userSpaceOnUse" class="svga-on-canvas-eyesfront-gradient-right-4">
      <stop id="SvgjsStop3781" stop-opacity="0" stop-color="#000000" offset="0.95"/>
      <stop id="SvgjsStop3782" stop-opacity="0.2" stop-color="#000000" offset="1"/>
    </radialGradient>
    <radialGradient id="SvgjsRadialGradient3787" cx="-568.659" cy="-521.042" r="59.751" gradientTransform="matrix(0.096 -0.0248 0.0245 0.0961 141.2814 119.9893)" gradientUnits="userSpaceOnUse" class="svga-on-canvas-eyesiris-gradient-left-1">
      <stop id="SvgjsStop3788" stop-opacity="1" stop-color="#ffffff" offset="0"/>
      <stop id="SvgjsStop3789" stop-opacity="0" stop-color="#ffffff" offset="1"/>
    </radialGradient>
    <radialGradient id="SvgjsRadialGradient3791" cx="-582.838" cy="-519.099" r="59.745" gradientTransform="matrix(0.0991 8.856319e-004 -0.0011 0.0991 131.1134 135.9855)" gradientUnits="userSpaceOnUse" class="svga-on-canvas-eyesiris-gradient-left-2">
      <stop id="SvgjsStop3792" stop-opacity="1" stop-color="#ffffff" offset="0"/>
      <stop id="SvgjsStop3793" stop-opacity="0" stop-color="#ffffff" offset="1"/>
    </radialGradient>
    <linearGradient id="SvgjsLinearGradient3797" x1="122.67" y1="88.268" x2="123.606" y2="87.152" gradientTransform="matrix(1 0 0 1 -52 0)" gradientUnits="userSpaceOnUse" class="svga-on-canvas-eyesiris-gradient-left-5">
      <stop id="SvgjsStop3798" stop-opacity="1" stop-color="#ffffff" offset="0"/>
      <stop id="SvgjsStop3799" stop-opacity="0" stop-color="#ffffff" offset="1"/>
    </linearGradient>
    <linearGradient id="SvgjsLinearGradient3805" x1="129.636" y1="79.822" x2="127.91" y2="81.879" gradientTransform="matrix(1 0 0 1 -52 0)" gradientUnits="userSpaceOnUse" class="svga-on-canvas-eyesiris-gradient-left-7">
      <stop id="SvgjsStop3806" stop-opacity="1" stop-color="#ffffff" offset="0"/>
      <stop id="SvgjsStop3807" stop-opacity="0" stop-color="#ffffff" offset="1"/>
    </linearGradient>
    <radialGradient id="SvgjsRadialGradient3810" cx="-568.654" cy="-521.042" r="59.752" gradientTransform="matrix(0.096 -0.0248 0.0245 0.0961 193.2804 119.9894)" gradientUnits="userSpaceOnUse" class="svga-on-canvas-eyesiris-gradient-right-1">
      <stop id="SvgjsStop3811" stop-opacity="1" stop-color="#ffffff" offset="0"/>
      <stop id="SvgjsStop3812" stop-opacity="0" stop-color="#ffffff" offset="1"/>
    </radialGradient>
    <radialGradient id="SvgjsRadialGradient3814" cx="-582.833" cy="-519.102" r="59.747" gradientTransform="matrix(0.0991 8.856319e-004 -0.0011 0.0991 183.1126 135.9856)" gradientUnits="userSpaceOnUse" class="svga-on-canvas-eyesiris-gradient-right-2">
      <stop id="SvgjsStop3815" stop-opacity="1" stop-color="#ffffff" offset="0"/>
      <stop id="SvgjsStop3816" stop-opacity="0" stop-color="#ffffff" offset="1"/>
    </radialGradient>
    <linearGradient id="SvgjsLinearGradient3820" x1="122.67" y1="88.268" x2="123.606" y2="87.152" gradientUnits="userSpaceOnUse" class="svga-on-canvas-eyesiris-gradient-right-5">
      <stop id="SvgjsStop3821" stop-opacity="1" stop-color="#ffffff" offset="0"/>
      <stop id="SvgjsStop3822" stop-opacity="0" stop-color="#ffffff" offset="1"/>
    </linearGradient>
    <linearGradient id="SvgjsLinearGradient3828" x1="129.636" y1="79.822" x2="127.91" y2="81.879" gradientUnits="userSpaceOnUse" class="svga-on-canvas-eyesiris-gradient-right-7">
      <stop id="SvgjsStop3829" stop-opacity="1" stop-color="#ffffff" offset="0"/>
      <stop id="SvgjsStop3830" stop-opacity="0" stop-color="#ffffff" offset="1"/>
    </linearGradient>
    <linearGradient id="SvgjsLinearGradient3874" x1="132" y1="78" x2="126" y2="84" gradientTransform="matrix(1 0 0 1 -50 0)" gradientUnits="userSpaceOnUse" class="svga-on-canvas-eyesiris-gradient-left-6">
      <stop id="SvgjsStop3875" stop-opacity="1" stop-color="#ffffff" offset="0"/>
      <stop id="SvgjsStop3876" stop-opacity="0" stop-color="#ffffff" offset="1"/>
    </linearGradient>
    <linearGradient id="SvgjsLinearGradient3884" x1="132" y1="78" x2="126" y2="84" gradientUnits="userSpaceOnUse" class="svga-on-canvas-eyesiris-gradient-right-6">
      <stop id="SvgjsStop3885" stop-opacity="1" stop-color="#ffffff" offset="0"/>
      <stop id="SvgjsStop3886" stop-opacity="0" stop-color="#ffffff" offset="1"/>
    </linearGradient>
  </defs>
  <g id="svga-group-wrapper">
    <g id="svga-group-backs-single"/>
    <g id="svga-group-humanwrap-move" transform="matrix(1,0,0,1,0,0)">
      <g id="svga-group-humanwrap" transform="matrix(1,0,0,1,0,0)">
        <g id="svga-group-hair-back-move" transform="matrix(1,0,0,1,0,0)">
          <g id="svga-group-hair-back" transform="matrix(1,0,0,1,0,0)">
            <path id="SvgjsPath3934" d="M100.5,100.5h-1v-1h1V100.5z" fill="#2a232b" stroke-width="none" opacity="1"/>
          </g>
        </g>
        <g id="svga-group-humanbody-single">
          <path id="SvgjsPath3498" d="M195.417 199.778c-2.196-4.746-8.195-11.779-14.86-13.722 -8.239-2.403-26.837-5.308-33.733-6.923 -5.528-1.296-16.662-11.294-20.564-14.65 -0.7-0.6-1.273-1.839-1.287-2.76 -0.139-10.864 4.195-39.724 4.195-39.724H100 70.833c0 0 4.334 28.859 4.193 39.724 -0.011 0.921-0.587 2.16-1.285 2.76 -3.902 3.356-15.036 13.354-20.564 14.65 -6.897 1.615-25.495 4.619-33.733 7.022 -6.667 1.942-12.664 8.876-14.86 13.622 -3.708 8.008-4.584 22.5-4.584 35h100 100C200 222.278 199.123 207.786 195.417 199.778z" fill="#cda184" stroke-width="none" opacity="1" stroke="none"/>
          <path id="SvgjsPath3499" d="M159.156 184.058c24.342 3.542 34.586 8.708 37.794 50.721H200c0-12.5-0.877-26.992-4.583-35 -2.196-4.746-8.195-11.779-14.86-13.722 -8.239-2.403-26.837-5.308-33.733-6.923 -5.528-1.296-18.242-12.069-21.643-16.35 3.36 4.704 12.791 15.605 21.054 18.46C150.188 182.61 153.48 183.232 159.156 184.058zM53.766 181.244c8.263-2.854 17.693-13.756 21.054-18.46 -3.4 4.28-16.114 15.054-21.643 16.35 -6.896 1.615-25.494 4.619-33.733 7.022 -6.665 1.942-12.664 8.876-14.86 13.622 -3.706 8.008-4.583 22.5-4.583 35h3.05c3.188-41.744 13.475-47.183 37.794-50.721C46.52 183.232 49.813 182.61 53.766 181.244z" fill="#dcbaa4" stroke-width="none" opacity="1" stroke="none"/>
          <path id="SvgjsPath3500" d="M95.646 197.62c0 0-5.074-1.609-7.083-2.379 -10.449-4.009-44.395-6.607-44.395-6.607s35.754 1.419 43.644 2.779c-0.458-4.767-3.017-20.004-3.017-20.004s5.149 16.815 6.409 21.057C91.878 194.734 95.646 197.62 95.646 197.62zM106.445 196.278c-0.089 0.073-0.191 0.168-0.302 0.268C106.256 196.461 106.358 196.372 106.445 196.278zM95.646 197.62c0 0 2.893 2.992 4.347 3.03 1.91 0.051 4.828-2.899 6.151-4.104 -1.265 0.957-4.159 1.391-5.31 1.436C99.504 198.033 95.646 197.62 95.646 197.62zM116.664 190.101c-1.545 0.248-4.386 0.789-4.386 0.789l2.287-14.89c-0.646 3.071-4.474 16.211-8.12 20.278 1.91-1.616 6.158-2.391 8.324-2.704 10.236-1.484 10.232-1.483 41.062-4.94C155.831 188.634 126.76 188.479 116.664 190.101z" fill="#be8a67" stroke-width="none" opacity="1" stroke="none"/>
          <path id="SvgjsPath3501" d="M195.417 199.778c-2.196-4.746-8.195-11.779-14.86-13.722 -8.239-2.403-26.837-5.308-33.733-6.923 -5.528-1.296-16.662-11.294-20.564-14.65 -0.7-0.6-1.273-1.839-1.287-2.76 -0.139-10.864 4.195-39.724 4.195-39.724H100 70.833c0 0 4.334 28.859 4.193 39.724 -0.011 0.921-0.587 2.16-1.285 2.76 -3.902 3.356-15.036 13.354-20.564 14.65 -6.897 1.615-25.495 4.619-33.733 7.022 -6.667 1.942-12.664 8.876-14.86 13.622 -3.708 8.008-4.584 22.5-4.584 35h100 100C200 222.278 199.123 207.786 195.417 199.778z" fill="none" stroke="#9f6037" stroke-width="1.5" opacity="1"/>
        </g>
        <g id="svga-group-chinshadow-single">
          <path id="SvgjsPath3648" d="M117.136 169.742c2.515-1.069 5.217-3.028 7.927-5.519 -0.494-0.746-0.828-1.684-0.841-2.49 -0.093-7.296 1.775-22.369 3.054-31.753 -15.779-1.925-38.771-1.917-54.549 0.014 1.278 9.384 3.145 24.446 3.05 31.738 -0.01 0.789-0.348 1.735-0.84 2.485 2.712 2.493 5.416 4.454 7.932 5.524C90.312 172.907 109.693 172.907 117.136 169.742z" fill="url(#SvgjsLinearGradient3649)" opacity="1"/>
        </g>
        <g id="svga-group-clothes-single">
          <path id="SvgjsPath3967" d="M197.798 201.546c-10.478-20.278-30.653-17.404-49.968-22.843 -0.468 3.585-13.251 20.479-16.287 30.061 -1.705-1.423-3.74-3.325-5.209-5.066 -7.188-8.443-17.841-35.76-21.416-14.428 0.777-9.576 5.003-11.686 10.871-3.659 6.308 8.638 6.542 13.098 15.542 22.491 1.59-6.601 5.032-11.259 9.036-17.104 3.875-5.663 6.705-8.217 7.119-13.258 -1.445-2.408-1.099-3.486-3.434-5.046 -14.655-9.912-4.192-19.97-17.476-22.365 -0.104 1.198-0.235 2.54-0.345 3.549 2.841 1.462 3.691 7.152-0.683 11.318 -6.951 7.631-18.12 8.01-21.032 19.723l-0.007-0.001c-0.927 3.477-1.669 8.799-2.021 11.919l-2.455 24.898 -2.47-24.457c-2.003-18.359-4.621-20.155-13.183-25.828 -5.673-3.76-14.943-9.433-11.917-15.847 0.345-0.742 0.765-1.198 1.286-1.541 -0.15-1.466-0.238-2.316-0.354-3.678 -10.967 0.467-9.281 15.982-17.586 21.69 -2.177 1.496-3.287 2.879-4.068 5.129 0.531 6.281 14.504 20.476 16.945 30.899 9.085-9.592 9.155-13.783 15.5-22.459 5.465-7.465 9.928-6.699 10.867 3.403 -0.516-3.035-1.738-7.681-4.386-7.681 -2.182 0-4.456 3.218-5.581 4.771 -6.299 8.678-7.311 14.885-16.647 22.633 -0.646-1.941-1.404-3.891-2.308-5.706 -3.7-7.474-13.719-22.555-14.858-24.017 -4.428 1.246-11.177 2.626-15.233 3.3 -26.504 4.411-36.778 12.969-40.685 53.031 97.202-0.984 136.811-0.556 209.21-0.556C203.66 225.907 201.881 209.46 197.798 201.546z" fill="#1d282e" stroke-width="none" opacity="1"/>
          <path id="SvgjsPath3968" d="M139.969 190.783c-3.461 5.054-6.201 9.3-7.908 14.621 1.967-10.979 14.436-21.374 13.086-27.939 -0.578-2.812-10.526-9.081-11.041-18.4 2.745 8.538 12.992 14.632 13.009 18.723C147.142 184.482 146.942 180.595 139.969 190.783zM204.486 234.028c0.347-8.682-2.572-25.584-6.19-32.598 -10.478-20.278-31.563-17.691-50.877-23.13 -0.171 0.218 0.49 1.66 0.027 2.28C192.595 188.9 197.736 198.817 204.486 234.028zM55.812 172.075c5.547-4.597 7.21-9.05 8.483-13.011 -2.85 16.28-7.111 10.123-10.22 18.276 -1.778 4.663 12.003 17.403 13.866 28.063 -2.442-4.175-5.06-9.313-8.521-14.367 -2.694-3.937-4.41-7.537-7.079-10.567C51.069 173.756 53.696 173.829 55.812 172.075zM52.34 180.47c-0.463-0.62-0.894-1.204-1.065-1.422 -19.314 5.438-38.594 2.104-49.071 22.383 -3.619 7.014-5.426 21.363-6.423 30.064 1.929-10.573 4.804-23.893 10.963-31.929C17.188 185.399 36.46 182.665 52.34 180.47z" fill="#2d373d" stroke-width="none" opacity="1"/>
          <path id="SvgjsPath3969" d="M119.848 171.392c-4.863 2.82-8.981 5.588-11.713 9.481 6.567 0.362 11.421 12.099 12.734 13.695 -12.333-17.166-17-5.5-18.5 5.432 0.432-3.546 0.787-9.596 1.487-12.193 0.204-1.033 0.423-2.021 0.654-2.889l0.007 0.001c2.912-11.713 14.081-12.092 21.032-19.723 4.374-4.166 3.523-9.856 0.683-11.318 0.109-1.009 0.241-2.351 0.345-3.549 0.729 0.133 1.379 0.292 1.982 0.469C137.518 158.679 125.96 168.657 119.848 171.392zM78.965 171.392c4.864 2.82 10.812 6.162 13.536 9.717 -4.798-0.873-10.131 6.294-12.798 12.627 11.5-14.667 15-6.333 18.667 6.265 -0.431-3.545-1.524-9.596-2.224-12.193 -0.204-1.033-0.422-2.021-0.654-2.889l-0.006 0.001c-2.912-11.713-13.682-12.092-20.633-19.723 -4.374-4.166-3.622-9.856-0.781-11.318 -0.109-1.009-0.24-2.351-0.344-3.549 -0.729 0.133-1.379 0.292-1.982 0.469C64.238 159.967 73.472 168.06 78.965 171.392z" fill="#101a1f" stroke-width="none" opacity="1"/>
          <path id="SvgjsPath3970" d="M125.876 163.323c0.031-5.701-0.159-2.538 0.418-8.99C128.518 155.526 128.801 160.423 125.876 163.323zM74.139 162.784c-2.323-3.04-2.61-6.145-0.347-8.49C74.334 159.352 74.059 158.742 74.139 162.784z" fill="#070c0f" stroke-width="none" opacity="1"/>
          <path id="SvgjsPath3971" d="M147.624 176.915c-0.206-3.542-7.813-6.496-11.188-14.175 -2.417-5.47-0.123-11.734-10.065-12.741 -0.545 3.187-1.028 10.193-0.883 13.579 -5.038 5.423-12.831 6.826-17.785 12.657 -5.288 6.224-7.58 19.7-7.667 47.667l1.232-0.801c0 0 1.372-26.485 1.382-26.563 3.084-26.427 12.888-20.185 22.979-31.263 4.521-4.332 3.441-10.072 0.722-11.463 0.118-1.12 0.228-2.229 0.325-3.35 8.552 1.571 6.109 6.605 8.784 12.753 3.556 8.174 10.297 9.959 10.732 13.923 0.69 6.281-3.058 8.947-6.817 14.434 -5.913 8.559-7.28 12.925-8.101 16.308 -8.975-9.426-8.98-13.558-15.398-22.338 -6.844-9.366-11.339-4.974-13.226 10.996 0.194-2.625 3.77-17.175 8.043-14.651 4.939 2.878 9.791 15.108 15.561 21.886 1.539 1.823 3.521 3.652 5.345 5.182 3.407-11.897 16-24.465 16.408-30.205 19.695 5.556 53.439-0.145 56.441 55.963 -41.138 0.22-85.815-0.682-208.97 0.554 1.785-18.437 4.804-36.508 15.723-44.653 4.685-3.507 10.117-5.341 15.712-6.508 7.797-1.616 16.522-2.655 24.253-4.747 0.788 1 14.205 21.198 17.224 29.597 10.863-8.503 15.207-24.459 21.188-27.214 4.164-1.913 7.559 11.938 7.753 14.553 -1.63-16.891-6.95-22.418-17.024-4.923 -4.964 8.624-6.28 10.962-11.56 16.51 -2.12-8.994-16.895-25.954-16.253-30.662 0.634-4.646 6.314-3.363 10.098-13.244 2.122-5.54 1.652-11.648 10.708-13.455 0.098 1.167 0.217 2.32 0.336 3.486 -2.479 1.631-3.109 7.111 0.852 10.942 3.567 4.085 10.004 6.416 14.255 9.676 5.011 3.867 6.993 7.827 8.588 21.67 0.035 0.302 1.37 26.942 1.37 26.942l1.333 0.667c-0.667-27.833-3.335-44.568-8.721-49.258 -4.652-4.15-12.775-6.796-16.717-11.429 0.12-3.476-0.565-10.518-0.993-13.171 -9.009 0.918-9.264 6.638-11.196 11.632 -5.165 13.351-10.134 9.527-10.957 15.059 -0.077 0.517 0.042 0.906 0.167 1.594 -7.58 1.548-17.04 2.563-24.641 3.953 -11.343 2.071-22.045 8.058-26.925 19.452 -3.707 8.647-4.781 24.051-5.053 33.543 -0.011 0.068-0.011 0.147-0.011 0.215 0.152 0.012 0.314 0.012 0.466 0.012 130.475 1.387 208.449-0.578 209.534-0.578C205.369 181.568 176.202 183.902 147.624 176.915zM125.976 163.024c0.016-2.933 0.105-6.329 0.318-8.691C127.892 155.473 129.133 159.262 125.976 163.024zM74.088 162.593c-2.652-3.471-1.6-6.836-0.396-8C73.943 156.939 74.042 160.224 74.088 162.593z" fill="#000000" stroke-width="none" opacity="1"/>
        </g>
        <g id="svga-group-head" transform="matrix(1,0,0,1,0,0)">
          <g id="svga-group-ears-left-move" transform="matrix(1,0,0,1,0,0)">
            <g id="svga-group-ears-left" transform="matrix(1,0,0,1,0,0)">
              <path id="SvgjsPath3727" d="M45.671 84.344c-1.485-2.462-6.327-9.199-10.031-8.254 -3.012 0.772-2.973 4.971-3.206 7.455 -0.34 3.644-0.464 9.992 0.525 12.568 0.951 2.473 3.96 7.252 5.828 9.075 2.299 2.235 5.97 9.358 6.422 10.097 0.711 1.168 2.137 2.84 4.325 2.708 3.071-0.185 5.724-3.087 5.965-4.485C56.8 105.918 49.536 90.75 45.671 84.344z" fill="#cda184" stroke="#9f6037" stroke-width="1.5" opacity="1"/>
              <path id="SvgjsPath3728" d="M44.2 99.341c-0.143-0.563 0.007-1.513 0.154-2.429 0.133-0.835 0.258-1.624 0.182-2.182 -0.289-2.09-1.915-6.06-2.976-8.212 -1.223-2.476-3.199-5.595-5.679-6.399 -1.024-0.333-1.699 0.065-2.089 0.468 -0.288 0.296-0.353 0.645-0.259 0.687 0.095 0.041 0.307-0.248 0.617-0.519 0.254-0.222-0.508-0.04 0 0 -0.205 1.04-0.865 6.302-0.41 10.143 0.358 3.022 1.05 5.279 1.263 5.617 0.031 0.356 0.083 0.705 0.16 1.043 1.002 4.41 7.518 10.177 9.034 11.82 0.28 0.303 0.574 0.483 0.646 0.409s-0.101-0.373-0.379-0.678c-1.498-1.632-7.971-7.381-8.939-11.635 -1.027-4.514 3.912-11.207 4.699-12.623 0.401 0.665 0.742 1.303 1.004 1.835 0.207 0.417 0.434 0.906 0.67 1.435 -0.463 0.738-5.118 6.127-3.934 10.441 0.438 1.591 3.822 3.642 5.131 4.203 0.72 0.31 0.99 0.772 1.304 1.306 0.364 0.624 0.033 2.229 1.23 2.739 0.244 0.104 0.464 0.146 0.659 0.146 0.338 0 0.594-0.13 0.783-0.284 0.02 0.271 0.019 0.619 0.009 0.941 -0.012 0.418 0.047 0.609 0.148 0.617 0.103 0.009 0.21-0.174 0.223-0.587 0.017-0.51 0.014-1.141-0.077-1.444 -0.269-0.889-1.088-1.894-1.957-2.957C44.563 102.197 44.422 100.213 44.2 99.341zM34.969 95.432c-2.348-6.923 1.283-13.229 1.81-14.179 1.012 0.399 2.562 2.193 3.221 3.235C39.52 85.321 35.067 90.775 34.969 95.432zM45.772 106.464c-1.084-0.462-0.706-1.984-1.056-2.584 -0.318-0.542-0.646-1.102-1.479-1.46 -0.18-0.078-0.379-0.196-0.583-0.332 -2.682-6.075 0.293-8.73 1.039-9.273 0.229 0.742 0.399 1.423 0.476 1.97 0.068 0.5-0.059 1.298-0.181 2.068 -0.153 0.955-0.31 1.944-0.147 2.584 0.244 0.953 0.411 2.97 1.291 4.048 0.781 0.956 1.583 1.942 1.857 2.746C46.871 106.391 46.5 106.775 45.772 106.464z" fill="#9f6037" stroke-width="none" opacity="1"/>
            </g>
          </g>
          <g id="svga-group-ears-right-move" transform="matrix(1,0,0,1,0,0)">
            <g id="svga-group-ears-right" transform="matrix(1,0,0,1,0,0)">
              <path id="SvgjsPath3729" d="M154.066 84.344c1.486-2.462 6.328-9.199 10.031-8.254 3.012 0.772 2.973 4.971 3.207 7.455 0.34 3.644 0.463 9.992-0.525 12.568 -0.951 2.473-3.961 7.252-5.828 9.075 -2.299 2.235-5.971 9.358-6.422 10.097 -0.711 1.168-2.137 2.84-4.326 2.708 -3.07-0.185-5.723-3.087-5.965-4.485C142.938 105.918 150.203 90.75 154.066 84.344z" fill="#cda184" stroke="#9f6037" stroke-width="1.5" opacity="1"/>
              <path id="SvgjsPath3730" d="M154.322 103.243c-0.869 1.063-1.688 2.068-1.957 2.957 -0.092 0.304-0.094 0.935-0.078 1.444 0.014 0.413 0.121 0.596 0.225 0.587 0.102-0.008 0.16-0.199 0.148-0.617 -0.01-0.322-0.012-0.67 0.008-0.941 0.189 0.154 0.445 0.284 0.783 0.284 0.195 0 0.416-0.042 0.66-0.146 1.195-0.511 0.865-2.116 1.229-2.739 0.314-0.534 0.584-0.997 1.305-1.306 1.309-0.561 4.693-2.611 5.131-4.203 1.184-4.314-3.471-9.704-3.934-10.441 0.234-0.529 0.463-1.018 0.668-1.435 0.264-0.532 0.604-1.171 1.006-1.835 0.787 1.416 5.725 8.108 4.699 12.623 -0.969 4.254-7.441 10.003-8.939 11.635 -0.279 0.305-0.453 0.604-0.381 0.678 0.074 0.074 0.367-0.106 0.646-0.409 1.516-1.643 8.031-7.41 9.033-11.82 0.078-0.338 0.131-0.687 0.162-1.043 0.211-0.337 0.904-2.594 1.262-5.617 0.455-3.841-0.205-9.103-0.41-10.143 0.508-0.04-0.254-0.222 0 0 0.311 0.271 0.523 0.56 0.617 0.519 0.094-0.042 0.029-0.39-0.258-0.687 -0.391-0.403-1.066-0.801-2.09-0.468 -2.48 0.804-4.457 3.923-5.68 6.399 -1.061 2.152-2.686 6.122-2.975 8.212 -0.076 0.558 0.049 1.347 0.182 2.182 0.146 0.916 0.297 1.866 0.154 2.429C155.316 100.213 155.176 102.197 154.322 103.243zM159.738 84.488c0.66-1.042 2.209-2.835 3.221-3.235 0.527 0.95 4.158 7.256 1.811 14.179C164.672 90.775 160.219 85.321 159.738 84.488zM152.75 106.229c0.273-0.804 1.076-1.79 1.857-2.746 0.879-1.078 1.047-3.095 1.291-4.048 0.162-0.64 0.006-1.629-0.146-2.584 -0.123-0.77-0.25-1.568-0.182-2.068 0.076-0.547 0.246-1.228 0.475-1.97 0.746 0.543 3.721 3.199 1.039 9.273 -0.203 0.136-0.402 0.254-0.584 0.332 -0.832 0.358-1.16 0.918-1.479 1.46 -0.35 0.6 0.029 2.123-1.055 2.584C153.238 106.775 152.867 106.391 152.75 106.229z" fill="#9f6037" stroke-width="none" opacity="1"/>
            </g>
          </g>
          <g id="svga-group-faceshape-wrap" transform="matrix(1,0,0,1,0,0)">
            <g id="svga-group-faceshape-single">
              <path id="SvgjsPath3645" d="M144.736 127.176c-4.549 9.887-17.57 28.302-27.601 32.566 -7.442 3.165-26.824 3.165-34.267 0 -10.029-4.265-23.05-22.68-27.601-32.566 -5.29-11.491-14.118-48.623-14.13-48.677 -1.3-4.996-1.996-10.239-2.004-15.645C39.082 28.806 66.289 1.169 99.907 1.116c33.621-0.053 60.913 27.495 60.963 61.543 0.009 5.408-0.669 10.653-1.952 15.653C158.901 78.365 150.045 115.641 144.736 127.176z" fill="#cda184" stroke-width="none" opacity="1" stroke="none"/>
              <path id="SvgjsPath3646" d="M110.152 1.984c26.994 6.347 47.097 30.857 47.052 60.124 -0.009 5.407-0.704 10.65-2.004 15.646 -0.012 0.054-9.158 37.218-14.396 48.677 -4.417 9.659-16.244 27.271-25.867 31.821 -3.169 1.499-11.439 1.855-14.935 1.855 -3.494 0-11.765-0.356-14.933-1.855 -9.623-4.55-21.451-22.162-25.867-31.821 -5.239-11.459-14.385-48.623-14.396-48.677 -1.3-4.995-1.996-10.239-2.004-15.646C42.756 32.841 62.857 8.331 89.853 1.984 61.03 6.885 39.087 32.276 39.134 62.854c0.008 5.406 0.704 10.649 2.004 15.645 0.012 0.054 8.781 37.213 14.13 48.677 4.602 9.862 17.738 27.917 27.601 32.566 3.671 1.732 13.088 2.374 17.134 2.374 4.043 0 13.464-0.643 17.133-2.374 9.862-4.649 23-22.704 27.601-32.566 5.35-11.464 14.119-48.623 14.13-48.677 1.3-4.996 1.996-10.239 2.004-15.645C160.918 32.276 138.975 6.885 110.152 1.984z" fill="#c59575" stroke-width="none" opacity="1" stroke="none"/>
              <path id="SvgjsPath3647" d="M144.736 127.176c-4.549 9.887-17.57 28.302-27.601 32.566 -7.442 3.165-26.824 3.165-34.267 0 -10.029-4.265-23.05-22.68-27.601-32.566 -5.29-11.491-14.118-48.623-14.13-48.677 -1.3-4.996-1.996-10.239-2.004-15.645C39.082 28.806 66.289 1.169 99.907 1.116c33.621-0.053 60.913 27.495 60.963 61.543 0.009 5.408-0.669 10.653-1.952 15.653C158.901 78.365 150.045 115.641 144.736 127.176z" fill="none" stroke="#9f6037" stroke-width="1.5" opacity="1"/>
            </g>
          </g>
          <g id="svga-group-mouth-single-move" transform="matrix(1,0,0,1,0,0)">
            <g id="svga-group-mouth-single" transform="matrix(1,0,0,1,0,0)">
              <path id="SvgjsPath3683" d="M100.2 142.947c-2.832 0.144-3.644-2.753-3.644-2.753s3.931 0.565 6.991-0.353C103.548 139.842 102.692 142.822 100.2 142.947z" fill="url(#SvgjsLinearGradient3684)" opacity="1"/>
              <path id="SvgjsPath3687" d="M100.488 140.76c-1.984 0.1-3.765-0.077-3.877-0.089 -0.138-0.014-0.238-0.136-0.224-0.272 0.015-0.138 0.143-0.233 0.274-0.224 0.041 0.003 4.096 0.405 6.738-0.337 0.131-0.032 0.271 0.041 0.309 0.174s-0.04 0.27-0.173 0.308C102.601 140.582 101.517 140.708 100.488 140.76z" fill="#9f6037" stroke-width="none" opacity="1" stroke="none"/>
              <path id="SvgjsPath3688" d="M82.5 130.299c0 0 12.532 1.486 16.718 1.499 4.553 0.012 19.282-1.499 19.282-1.499 -4.258 3.534-8.943 6.932-19.555 6.999C89.453 137.359 87.021 133.912 82.5 130.299z" fill="#ffffff" stroke-width="none" opacity="1"/>
              <path id="SvgjsPath3689" d="M82.5 130.299c0 0 12.532 1.486 16.718 1.499 4.553 0.012 19.282-1.499 19.282-1.499 -4.258 3.534-8.943 6.932-19.555 6.999C89.453 137.359 87.021 133.912 82.5 130.299z" fill="none" stroke="#9f6037" stroke-width="0.75" opacity="1"/>
            </g>
          </g>
          <g id="svga-group-eyes-left-move" transform="matrix(1,0,0,1,0,0)">
            <g id="svga-group-eyes-left" transform="matrix(1,0,0,1,0,0)">
              <g id="svga-group-eyesback-left">
                <path id="SvgjsPath3731" d="M61.752 82.523c-0.506-2.285 5.191-3.973 12.711-3.051 7.518 0.923 12.738 5.524 12.052 7.844 -0.38 1.286-10.639 3.245-14.253 2.847C68.598 89.758 62.974 88.04 61.752 82.523z" fill="url(#SvgjsRadialGradient3732)" opacity="1"/>
              </g>
              <g id="svga-group-eyesiriswrapper-left" transform="matrix(1,0,0,1,0.25,0.25)">
                <g id="svga-group-eyesiriscontrol-left" transform="matrix(1,0,0,1,0,0)">
                  <g id="svga-group-eyesiris-left" transform="matrix(1,0,0,1,0,0)">
                    <path id="SvgjsPath3897" d="M79.788 85.588c-0.869 3.192-4.162 5.073-7.361 4.196 -3.197-0.876-5.084-4.178-4.214-7.371 0.869-3.195 4.168-5.076 7.365-4.198C78.772 79.09 80.659 82.392 79.788 85.588z" fill="#334609" stroke="#111800" stroke-width="0.5" opacity="1"/>
                    <path id="SvgjsPath3898" d="M79.643 84.371c-0.441 3.545-3.072 5.392-5.952 5.199 -2.658-0.179-5.034-2.14-5.254-5.525 0.919-0.264 2.14 0.165 3.211 0.001 -0.003 0.039-0.017 0.074-0.018 0.113 -0.084 1.3 0.958 2.433 2.329 2.525 1.374 0.092 2.556-0.892 2.641-2.191 0.009-0.169-0.001-0.336-0.027-0.496C77.527 84.141 78.693 83.999 79.643 84.371z" fill="#415513" stroke-width="none" opacity="1"/>
                    <path id="SvgjsPath3899" d="M74.867 81.998c-1.319-0.377-2.667 0.376-3.007 1.691 -0.341 1.308 0.453 2.678 1.771 3.056 1.322 0.379 2.669-0.375 3.011-1.684C76.986 83.745 76.188 82.376 74.867 81.998z" fill="#000000" stroke-width="none" opacity="0.9"/>
                    <path id="SvgjsPath3900" d="M74.867 81.998c-1.319-0.377-2.667 0.376-3.007 1.691 -0.341 1.308 0.453 2.678 1.771 3.056 1.322 0.379 2.669-0.375 3.011-1.684C76.986 83.745 76.188 82.376 74.867 81.998z" fill="none" stroke="#111800" stroke-width="0.75" opacity="1"/>
                    <path id="SvgjsPath3901" d="M71.16 87.657c-0.125 0.437-0.806 0.251-0.681-0.188 0.121-0.423 0.446-0.683 0.653-1.055 0.221-0.398 0.831-0.042 0.609 0.356C71.571 87.078 71.257 87.314 71.16 87.657L71.16 87.657zM72.246 86.96c-0.188 0.219-0.434 1.03-0.54 1.295 -0.17 0.422 0.513 0.604 0.681 0.188 0.058-0.145 0.256-0.863 0.359-0.983C73.04 87.116 72.543 86.614 72.246 86.96L72.246 86.96zM73.716 89.048c0.369-0.425 0.332-0.912 0.324-1.441 -0.007-0.455-0.713-0.455-0.706 0 0.004 0.293 0.092 0.701-0.117 0.942C72.92 88.891 73.417 89.392 73.716 89.048L73.716 89.048zM74.437 87.519c0.005 0.438 0.06 0.865 0.189 1.285 0.134 0.434 0.815 0.249 0.681-0.188 -0.112-0.362-0.159-0.719-0.164-1.097C75.138 87.064 74.432 87.063 74.437 87.519L74.437 87.519z" fill="#ffffff" stroke-width="none" opacity="0.5"/>
                    <path id="SvgjsPath3902" d="M78.197 82.971c-0.695 0.417-1.74 0.042-2.333-0.839 -0.592-0.881-0.503-1.934 0.193-2.349 0.694-0.419 1.742-0.043 2.33 0.838C78.979 81.502 78.893 82.554 78.197 82.971z" fill="#ffffff" stroke-width="none" opacity="0.8"/>
                  </g>
                </g>
              </g>
              <g id="svga-group-eyesfront-left">
                <path id="SvgjsPath3753" d="M53.294 83c0.809 10.899 11.637 23.583 20.506 22.236 10.498 0.106 20.864-7.868 20.864-22.305s-5.087-26.528-21.127-26.528C62.037 56.402 53.294 68.563 53.294 83zM61.752 82.523c-0.506-2.285 5.191-3.973 12.711-3.051 7.518 0.923 12.738 5.524 12.052 7.844 -0.38 1.286-10.639 3.245-14.253 2.847C68.598 89.758 62.974 88.04 61.752 82.523z" fill="#cda184" stroke-width="none" opacity="1"/>
                <path id="SvgjsPath3754" d="M72.262 90.163c3.614 0.398 13.873-1.561 14.253-2.847 0.687-2.32-4.534-6.921-12.052-7.844C68.003 78.68 62.9 79.816 61.907 81.6c0.898-6.4 7.7-11.397 15.987-11.434 8.911-0.037 16.148 5.676 16.172 12.765 0.021 7.088-7.185 12.862-16.095 12.902 -8.913 0.037-16.149-5.676-16.173-12.764 0-0.105 0.016-0.208 0.019-0.313C63.147 88.083 68.651 89.764 72.262 90.163z" fill="url(#SvgjsRadialGradient3755)" opacity="1"/>
                <path id="SvgjsPath3759" d="M61.752 82.523c-0.506-2.285 5.191-3.973 12.711-3.051 7.518 0.923 12.738 5.524 12.052 7.844 -0.38 1.286-10.639 3.245-14.253 2.847C68.598 89.758 62.974 88.04 61.752 82.523z" fill="url(#SvgjsRadialGradient3760)" opacity="1"/>
                <path id="SvgjsPath3763" d="M62.148 77.417c4.208-1.978 9.35-2.16 13.838-1.005 2.404 0.561 4.965 1.285 7.063 2.638 1.945 1.135 3.525 2.5 5.002 4.19 -1.342-1.701-2.773-3.118-4.623-4.27 -2.276-1.416-4.769-2.294-7.364-2.916C71.478 74.928 66.342 75.184 62.148 77.417z" fill="#9f6037" stroke-width="none" opacity="1"/>
                <path id="SvgjsPath3764" d="M62.769 78.02c0.88-0.352 4.065-1 5.456-1.066 1.687-0.082 5.073 0.125 6.735 0.424 3.374 0.608 9.251 2.483 11.678 7.184 0.746 1.445 0.074 2.456-0.123 2.675 0.3-2.426-4.838-6.746-12.052-7.604 -7.52-0.894-13.217 0.743-12.711 2.958 1.222 5.348 6.846 7.013 10.51 7.405 4.099 0.439 11.684-1.539 12.686-1.753 -1.999 1.009-7.524 2.095-9.767 2.303 -0.744 0.07-2.24 0.104-2.986 0.085 -5.949-0.158-10.169-3.175-11.729-7.26C59.464 80.745 60.56 78.902 62.769 78.02z" fill="#000000" stroke-width="none" opacity="1"/>
              </g>
            </g>
          </g>
          <g id="svga-group-eyes-right-move" transform="matrix(1,0,0,1,0,0)">
            <g id="svga-group-eyes-right" transform="matrix(1,0,0,1,0,0)">
              <g id="svga-group-eyesback-right">
                <path id="SvgjsPath3738" d="M137.849 82.523c0.506-2.285-5.191-3.973-12.711-3.051 -7.518 0.923-12.738 5.524-12.052 7.844 0.38 1.286 10.639 3.245 14.253 2.847C131.003 89.758 136.627 88.04 137.849 82.523z" fill="url(#SvgjsRadialGradient3739)" opacity="1"/>
              </g>
              <g id="svga-group-eyesiriswrapper-right" transform="matrix(1,0,0,1,-0.25,0.25)">
                <g id="svga-group-eyesiriscontrol-right" transform="matrix(1,0,0,1,0,0)">
                  <g id="svga-group-eyesiris-right" transform="matrix(1,0,0,1,0,0)">
                    <path id="SvgjsPath3903" d="M131.788 85.588c-0.869 3.192-4.162 5.073-7.362 4.196 -3.196-0.876-5.084-4.178-4.214-7.371 0.869-3.195 4.169-5.076 7.365-4.198C130.772 79.09 132.658 82.392 131.788 85.588z" fill="#334609" stroke="#111800" stroke-width="0.5" opacity="1"/>
                    <path id="SvgjsPath3904" d="M131.643 84.371c-0.44 3.545-3.072 5.392-5.951 5.199 -2.657-0.179-5.034-2.14-5.255-5.525 0.919-0.264 2.141 0.165 3.212 0.001 -0.004 0.039-0.017 0.074-0.019 0.113 -0.085 1.3 0.958 2.433 2.329 2.525 1.374 0.092 2.555-0.892 2.64-2.191 0.009-0.169-0.001-0.336-0.026-0.496C129.527 84.141 130.693 83.999 131.643 84.371z" fill="#415513" stroke-width="none" opacity="1"/>
                    <path id="SvgjsPath3905" d="M126.867 81.998c-1.319-0.377-2.666 0.376-3.007 1.691 -0.341 1.308 0.453 2.678 1.771 3.056 1.322 0.379 2.669-0.375 3.011-1.684C128.986 83.745 128.188 82.376 126.867 81.998z" fill="#000000" stroke-width="none" opacity="0.9"/>
                    <path id="SvgjsPath3906" d="M126.867 81.998c-1.319-0.377-2.666 0.376-3.007 1.691 -0.341 1.308 0.453 2.678 1.771 3.056 1.322 0.379 2.669-0.375 3.011-1.684C128.986 83.745 128.188 82.376 126.867 81.998z" fill="none" stroke="#111800" stroke-width="0.75" opacity="1"/>
                    <path id="SvgjsPath3907" d="M123.16 87.657c-0.125 0.437-0.806 0.251-0.682-0.188 0.121-0.423 0.447-0.683 0.654-1.055 0.22-0.398 0.83-0.042 0.609 0.356C123.571 87.078 123.257 87.314 123.16 87.657L123.16 87.657zM124.246 86.96c-0.188 0.219-0.434 1.03-0.54 1.295 -0.171 0.422 0.513 0.604 0.681 0.188 0.059-0.145 0.256-0.863 0.358-0.983C125.04 87.116 124.543 86.614 124.246 86.96L124.246 86.96zM125.716 89.048c0.369-0.425 0.332-0.912 0.324-1.441 -0.007-0.455-0.713-0.455-0.706 0 0.004 0.293 0.092 0.701-0.117 0.942C124.92 88.891 125.418 89.392 125.716 89.048L125.716 89.048zM126.438 87.519c0.005 0.438 0.059 0.865 0.188 1.285 0.135 0.434 0.815 0.249 0.681-0.188 -0.112-0.362-0.159-0.719-0.164-1.097C127.138 87.064 126.432 87.063 126.438 87.519L126.438 87.519z" fill="#ffffff" stroke-width="none" opacity="0.5"/>
                    <path id="SvgjsPath3908" d="M130.197 82.971c-0.695 0.417-1.74 0.042-2.333-0.839 -0.592-0.881-0.504-1.934 0.192-2.349 0.695-0.419 1.742-0.043 2.33 0.838C130.979 81.502 130.893 82.554 130.197 82.971z" fill="#ffffff" stroke-width="none" opacity="0.8"/>
                  </g>
                </g>
              </g>
              <g id="svga-group-eyesfront-right">
                <path id="SvgjsPath3773" d="M126.063 56.402c-16.04 0-21.127 12.091-21.127 26.528s10.366 22.412 20.864 22.305c8.869 1.347 19.697-11.337 20.506-22.236C146.307 68.563 137.563 56.402 126.063 56.402zM127.339 90.163c-3.614 0.398-13.873-1.561-14.253-2.847 -0.687-2.32 4.534-6.921 12.052-7.844 7.52-0.922 13.217 0.767 12.711 3.051C136.627 88.04 131.003 89.758 127.339 90.163z" fill="#cda184" stroke-width="none" opacity="1"/>
                <path id="SvgjsPath3774" d="M127.339 90.163c-3.614 0.398-13.873-1.561-14.253-2.847 -0.687-2.32 4.534-6.921 12.052-7.844 6.46-0.792 11.563 0.345 12.556 2.128 -0.898-6.4-7.7-11.397-15.987-11.434 -8.911-0.037-16.148 5.676-16.172 12.765 -0.021 7.088 7.185 12.862 16.095 12.902 8.913 0.037 16.149-5.676 16.173-12.764 0-0.105-0.016-0.208-0.019-0.313C136.453 88.083 130.949 89.764 127.339 90.163z" fill="url(#SvgjsRadialGradient3775)" opacity="1"/>
                <path id="SvgjsPath3779" d="M137.849 82.523c0.506-2.285-5.191-3.973-12.711-3.051 -7.518 0.923-12.738 5.524-12.052 7.844 0.38 1.286 10.639 3.245 14.253 2.847C131.003 89.758 136.627 88.04 137.849 82.523z" fill="url(#SvgjsRadialGradient3780)" opacity="1"/>
                <path id="SvgjsPath3783" d="M137.452 77.417c-4.208-1.978-9.35-2.16-13.838-1.005 -2.404 0.561-4.965 1.285-7.063 2.638 -1.945 1.135-3.525 2.5-5.002 4.19 1.342-1.701 2.773-3.118 4.623-4.27 2.276-1.416 4.769-2.294 7.364-2.916C128.123 74.928 133.259 75.184 137.452 77.417z" fill="#9f6037" stroke-width="none" opacity="1"/>
                <path id="SvgjsPath3784" d="M136.832 78.02c-0.88-0.352-4.065-1-5.456-1.066 -1.687-0.082-5.073 0.125-6.735 0.424 -3.374 0.608-9.251 2.483-11.678 7.184 -0.746 1.445-0.074 2.456 0.123 2.675 -0.3-2.426 4.838-6.746 12.052-7.604 7.52-0.894 13.217 0.743 12.711 2.958 -1.222 5.348-6.846 7.013-10.51 7.405 -4.099 0.439-11.684-1.539-12.686-1.753 1.999 1.009 7.524 2.095 9.767 2.303 0.744 0.07 2.24 0.104 2.986 0.085 5.949-0.158 10.169-3.175 11.729-7.26C140.137 80.745 139.041 78.902 136.832 78.02z" fill="#000000" stroke-width="none" opacity="1"/>
              </g>
            </g>
          </g>
          <g id="svga-group-facehighlight-single">
            <path id="SvgjsPath3490" d="M141 113.974c0.035 22.622-18.292 40.994-40.938 41.025 -22.642 0.037-41.028-18.273-41.063-40.9 -0.035-22.62 18.292-41.064 40.937-41.1C122.579 72.964 140.967 91.349 141 113.974z" fill="url(#SvgjsRadialGradient3491)" opacity="1"/>
            <path id="SvgjsPath3494" d="M137.5 53.999c0 20.711-16.789 37.5-37.499 37.5 -20.711 0-37.501-16.789-37.501-37.5s16.79-37.5 37.501-37.5C120.711 16.499 137.5 33.288 137.5 53.999z" fill="url(#SvgjsRadialGradient3495)" opacity="1"/>
          </g>
          <g id="svga-group-eyebrows-left-move" transform="matrix(1,0,0,1,0,2)">
            <g id="svga-group-eyebrows-left-rotate" transform="matrix(0.9825664732332883,-0.18591160716291477,0.18591160716291477,0.9825664732332883,-11.76937586685139,14.832026145639347)">
              <g id="svga-group-eyebrows-left" transform="matrix(1,0,0,1,0,0)">
                <path id="SvgjsPath3915" d="M52.488 73.87c7.475-9.383 20.338-7.822 30.878-6.314 2.681 0.384 5.441 0.672 8.07 1.336 1.884 0.475 3.365 2.622 1.851 4.356 -0.708 0.825-2.253 0.672-3.207 0.652C77.459 73.645 63.193 66.387 52.488 73.87z" fill="#2a232b" stroke-width="none" opacity="1"/>
              </g>
            </g>
          </g>
          <g id="svga-group-eyebrows-right-move" transform="matrix(1,0,0,1,0,2)">
            <g id="svga-group-eyebrows-right-rotate" transform="matrix(0.9825664725843343,0.1859116105927184,-0.1859116105927184,0.9825664725843343,15.285910505398462,-22.354320885843293)">
              <g id="svga-group-eyebrows-right" transform="matrix(1,0,0,1,0,0)">
                <path id="SvgjsPath3916" d="M147.577 73.49c-2.164-1.448-4.454-2.47-7.043-2.889 -9.497-1.54-27.586 4.79-32.341 3.45 -2.912-0.822-2.323-3.739-1.035-4.458 0.775-0.433 0.99-0.422 7.909-1.612C126.824 65.961 139.988 64.355 147.577 73.49z" fill="#2a232b" stroke-width="none" opacity="1"/>
              </g>
            </g>
          </g>
          <g id="svga-group-nose-single-move" transform="matrix(1,0,0,1,0,0)">
            <g id="svga-group-nose-single" transform="matrix(1,0,0,1,0,0)">
              <path id="SvgjsPath3700" d="M96.831 88.524c0 0-1.399 11.117-2.026 13.281 -1.379 4.752-6.168 11.417-5.239 14.429 1.859 6.022 7.537 4.493 10.524 4.471 2.763-0.022 8.072 1.552 9.162-2.37 0.352-1.266-0.441-4.466-0.441-4.466s-2.644 3.112-8.875 2.767c-1.778-0.099-4.671-2.096-4.704-4.912 -0.043-3.817 1.802-7.035 2.205-10.824C97.741 98.022 96.831 88.524 96.831 88.524z" fill="#be8a67" stroke-width="none" opacity="1"/>
              <path id="SvgjsPath3701" d="M105.194 118.969c1.075 0 1.366 0.326 1.366 0.729 0 0.404-0.335 1.026-1.366 0.73 -1.134-0.323-3.113-0.175-3.113-0.175S104.117 118.969 105.194 118.969zM94.922 118.969c-1.077 0.001-1.366 0.328-1.366 0.733 -0.001 0.403 0.323 0.983 1.366 0.729 1.15-0.282 3.112-0.175 3.112-0.175S95.999 118.973 94.922 118.969zM108.81 113.869c0 0 1.489 1.933 1.18 3.975 -0.301 1.983-3.31 2.861-3.31 2.861s2.089-1.516 2.342-3.356C109.14 116.486 108.81 113.869 108.81 113.869zM90.427 111.883c0 0-1.086 2.704-0.772 4.352 0.571 2.976 3.704 4.164 3.704 4.164s-1.955-2.039-2.65-3.842C89.948 114.587 90.427 111.883 90.427 111.883z" fill="#9f6037" stroke-width="none" opacity="1"/>
              <path id="SvgjsPath3702" d="M105.141 115.311c1.043-0.889 1.148-1.396 0.932-1.729 -0.215-0.334-0.841-0.545-1.714 0.528 -0.963 1.18-3.056 2.054-3.056 2.054S104.098 116.198 105.141 115.311z" fill="#dcbaa4" stroke-width="none" opacity="1"/>
            </g>
          </g>
          <g id="svga-group-beardwrap" transform="matrix(1,0,0,1,0,0)">
            <g id="svga-group-beard-single-move" transform="matrix(1,0,0,1,0,0)">
              <g id="svga-group-beard-single" transform="matrix(1,0,0,1,0,0)">
                <path id="SvgjsPath3947" d="M100,18.13L100,18.13L100,18.13L100,18.13z" fill="#2a232b" stroke-width="none" opacity="1"/>
              </g>
            </g>
          </g>
          <g id="svga-group-mustache-single-move" transform="matrix(1,0,0,1,0,0)">
            <g id="svga-group-mustache-single" transform="matrix(1,0,0,1,0,0)">
              <path id="SvgjsPath3945" d="M100,18.13L100,18.13L100,18.13L100,18.13z" fill="#2a232b" stroke-width="none" opacity="1"/>
            </g>
          </g>
          <g id="svga-group-hair-front" transform="matrix(1,0,0,1,0,0)">
            <path id="SvgjsPath3936" d="M152.983 98.604c-4.563-12.435 0.717-31.506-8.205-45.615 -4.064-6.762-7.597-11.409-6.95-19.276l-0.368-0.124c-0.862 1.352-1.994 2.82-2.745 3.76 0.427-1.091 1.123-2.762 1.753-4.023l-0.332-0.218c-2.585 3.073-4.805 4.649-7.859 5.5 3.3-2.32 6.949-6.357 8.546-8.595l-0.271-0.284c-11.319 7.283-24.164 7.382-35.496 7.471 -10.227 0.076-16.579-0.155-23.953-4.441 -5.321 1.764-9.511 1.539-14.116-1.635 -14.414 27.947-8.01 13.957-16.627 65.764 -5.004-6.67-6.458-10.912-7.642-17.267 -0.313-2.027-0.619-5.154-0.429-7.215l-0.063-0.065c-4.452-9.77-6.553-15.333-5.495-34.712 0.785-8.04 2.533-14.076 7.574-20.398 -0.665-3.435-0.729-6.898-0.277-10.21 -2.64-4.827-4.457-9.795-5.165-11.57 3.688 2.823 3.993 2.986 7.07 3.957 0.704-1.937 1.73-3.861 2.387-4.865 0.297 2.238 0.533 3.75 1.203 5.925 0.228 0.055 1.313 0.349 1.66 0.442 -0.199-1.324-0.381-1.938-0.353-3.125 0.571 1.302 1.053 1.604 2.71 3.626 1.834 0.385 1.394 0.328 1.944 0.328 -2.669-4.183-4.47-7.885-4.927-13.515 3.653 2.081 8.764 3.27 14.101 3.27 12.539 0 25.369-9.412 43.169-9.412 15.425 0 28.771 8.558 34.683 18.303 -0.006-2.514-0.113-4.594 0.794-7.178 0 0 0.105 3.705 0.105 6.592l0.396 0.037c0.62-3.301 1.928-6.115 4.088-8.773 -1.918 5.158-1.188 2.404-3.334 8.702l0.348 0.187c1.431-1.839 2.603-3.139 6.019-4.862 -2.468 2.473-4.355 3.89-5.522 5.639l0.301 0.259c1.456-1.32 2.971-1.82 4.512-0.613 -2.481-0.902-3.946 0.679-5.648 2.675 6.619 1.091 10.21 4.91 14.864 10.015 10.712 12.352 13.533 24.411 7.723 41.506 2.435 5.263 2.06 17.125-3.375 26.686C159.779 86.867 155.941 93.789 152.983 98.604z" fill="#2a232b" stroke-width="none" opacity="1"/>
            <path id="SvgjsPath3937" d="M62.299 30.371c0.359 0.334 0.718 0.668 1.074 1.004 -0.129-0.085-0.258-0.164-0.388-0.253 -14.414 27.947-8.01 13.957-16.627 65.764 -5.004-6.67-6.458-10.912-7.642-17.267 -0.313-2.027-0.619-5.154-0.429-7.215l-0.063-0.065c-4.452-9.77-6.553-15.333-5.495-34.712 0.785-8.04 2.533-14.076 7.574-20.398 -0.654-3.378-0.72-6.782-0.293-10.044 0.597 0.874 1.223 1.725 1.863 2.565C42.304 12.374 42.669 14.933 42 17c-9.539 29.478-4 43 2 64 -2.464-15.931-7.142-36.185 5.619-48C44.168 46.096 45.673 52.034 47 61 47.917 49.082 52.195 37.996 62.299 30.371zM155.432 13.06c-0.376-0.412-0.742-0.812-1.106-1.207 -0.382 0.255-0.774 0.489-1.159 0.737 14.956 30.661 0.594 27.717 4.017 41.409C161.183 63.999 156 70 156 80c0-15-0.681-25.439-8.96-37.175 -2.796-3.963-3.581-17.423-5.465-24.074C118.373 33 84.002 35.981 47.916 7.183c17 6 51.649 1.35 63.543-6.316 -13.558 2.461-41.862 2.608-54.59-2.631 30.5-2.37 30.131-12.16 56.131-14C100.5-20.431 73.196-8.51 60.658-8.51c-5.336 0-10.447-1.188-14.101-3.27 0.457 5.63 2.258 9.333 4.927 13.515 -0.551 0-0.11 0.057-1.944-0.328 -1.658-2.022-2.14-2.325-2.71-3.626 -0.029 1.187 0.154 1.801 0.353 3.125 -0.347-0.093-1.433-0.387-1.66-0.442 -0.67-2.175-0.906-3.687-1.203-5.925 -0.656 1.004-1.683 2.928-2.387 4.865 -3.078-0.971-3.382-1.134-7.07-3.957 0.708 1.775 2.525 6.744 5.165 11.57 -0.007 0.055-0.009 0.111-0.016 0.166 6.305 9.235 15.169 16.471 23.363 24.192 4.454 2.924 8.558 3.096 13.729 1.382 7.374 4.286 13.727 4.517 23.953 4.441 11.332-0.088 24.177-0.188 35.496-7.471l0.271 0.284c-1.597 2.238-5.246 6.275-8.546 8.595 3.055-0.852 5.274-2.428 7.859-5.5l0.332 0.218c-0.63 1.262-1.326 2.932-1.753 4.023 0.751-0.94 1.883-2.408 2.745-3.76l0.368 0.124c-0.646 7.868 2.886 12.514 6.95 19.276 8.922 14.109 3.643 33.181 8.205 45.615 2.958-4.815 6.796-11.736 6.796-17.352 5.435-9.561 5.81-21.423 3.375-26.686C168.965 37.471 166.144 25.412 155.432 13.06zM156.165 38.709c-0.33-9.524-6.633-21.612-6.633-21.612 -2.946-5.204-5.579-7.687-9.996-8.695 12.426 0.619 17.306 19.179 16.769 28.875C156.254 38.177 156.165 38.709 156.165 38.709zM127.907-1.507c3.283 2.663 4.067 3.423 7.296 7.909 -16.653-29.889-49.333-7.27-59.667-8C86.041 0.573 109.793-14.79 127.907-1.507zM136.369 11.485C116.408 28.033 85.929 21.023 61 13.21 85.827 24.581 117.435 30.734 136.369 11.485zM57.869 29.485c-6.539 3.425-9.616 12.05-9.9 17.75C49.19 42.316 52.854 33.291 57.869 29.485zM49.619 24.735c-9.359 5.699-11.174 18.771-10.25 29.75C40.353 44.343 42.181 31.11 49.619 24.735zM117.064 12.34c-1.006 0.215-7.259 1.072-10.672 1.195 -2.661 0.155-13.037 0.328-22.391-0.048 9.655 2.069 15.454 2.454 22.496 2.045 8.106-0.293 15.36-1.898 21.371-6.796C123.633 11.067 121.828 11.399 117.064 12.34zM150.609 38.885c0 0-0.256-0.441-0.588-1.102 -0.911-1.527-1.945-5.681-5.938-18.736 2.966 24.195 7.817 19.782 9.991 32.283C154.075 46.834 153.761 44.529 150.609 38.885z" fill="#1b141c" stroke-width="none" opacity="1"/>
            <path id="SvgjsPath3938" d="M157.853 68.131c0.364-3.246 0.217-1.758 0.257-3.61 0.306-6.244-3.426-11.479-1.154-18.987 1.854-5.453 2.925-6.308 2.113-15.801 -0.119-1.37-0.474-4.774-1.102-5.998 0.856 1.489 1.422 4.245 1.725 5.934 1.687 9.543 0.268 10.992-1.521 16.267C155.781 53.906 160.368 57.422 157.853 68.131zM141.575 18.751c1.117 30.37 7.276 23.316 12.717 41.752C150.598 38.757 147.181 56.786 141.575 18.751zM48.369 34.235c-9.19 11.563-8.262 19.899-6 37C42.165 53.925 40.055 47.355 48.369 34.235zM41.772 17.714c-5.274 16.319-6.429 23.684-3.897 41.285C37.406 41.353 37.518 37.458 41.772 17.714zM61.952 30.641C52.322 37.56 47.295 50.217 47 61 48.482 50.695 54.012 37.697 61.952 30.641zM128.855 24.594c-12.051 4.437-31.667 5.625-45.988 1.322C71.706 22.661 54.279 11.723 44.905 4.845c8.498 6.765 23.471 16.807 33.926 20.776 10.863 4.059 27.887 5.567 41.081 2.245 9.248-2.324 14.041-4.52 21.663-9.114C138.182 20.612 133.184 23.242 128.855 24.594zM102.813-11.594c12.167-2.285 26.509 5.558 34.057 14.83 -7.897-11.318-20.837-16.949-28.562-17.083C95.629-14.067 82.513-3.204 56.869-2.265 80.982-1.203 92.573-9.936 102.813-11.594zM112.369 1.235c-17.289 6.143-30.64 7.613-48.807 8.58C82.325 10.97 95.739 9.15 112.369 1.235zM130.536 4.738c-10.662 5.027-15.33 5.851-37.337 7.191C106.996 12.486 119.885 11.769 130.536 4.738zM95.248 20.023c10.644 1.237 29.289-0.105 38.621-9.788 -11.27 9.494-32.119 9.154-48.38 8.508C91.713 19.714 90.59 19.552 95.248 20.023zM140.869 10.735c7.629 2.809 9.489 16.193 12.5 27C152.022 28.156 149.721 12.813 140.869 10.735z" fill="#3a353a" stroke-width="none" opacity="1"/>
            <path id="SvgjsPath3939" d="M155.579 12.925c-4.348-4.769-8.252-8.97-14.63-10.02 2.094-2.463 3.566-3.379 6.25-1.85 -1.59-1.871-3.417-2.226-5.63-0.22 1.271-1.905 3.468-3.46 6.3-6.43 -4.231 1.985-5.503 3.34-7.12 5.42 2.285-6.703 1.3-3.128 3.72-9.75 -2.529 2.836-4.146 5.92-4.859 9.72 0-5.903-0.185-5.14-0.07-7.72 -1.387 3.089-1.229 5.81-1.229 7.59 -2.233-3.682-5.514-6.8-9.051-9.35 -25.054-18.289-50.039-1.456-63.58 0.58 -5.489 0.927-13.714 0.338-19.35-3.04 0.398 5.764 2.183 9.592 4.79 13.68 -0.001 0-1.47-0.31-1.47-0.31 -2.019-2.434-2.214-2.356-2.96-4.33 -0.191 1.763 0.101 2.74 0.25 3.74 -0.498-0.13-0.957-0.268-1.26-0.34 -0.743-2.414-0.958-4.25-1.23-6.29 -0.614 0.785-1.922 3.18-2.64 5.15 -2.999-0.948-3.214-1.099-7.43-4.33 0.5 1 2.309 6.461 5.44 12.23 -0.47 3.534-0.328 7.06 0.27 10.12 -5.025 6.312-6.77 12.346-7.56 20.44 -1.041 19.059 0.867 24.611 5.53 34.82 0.01 0.01 0.01 0.03 0.02 0.04 -0.177 1.971 0.119 5.102 0.44 7.18 1.179 6.332 2.625 10.693 7.91 17.65 0.02 0.02 0.03 0.05 0.05 0.07 3.395-20.368 3.045-20.867 3.77-25.89 3.572-25.712 3.417-21.872 12.81-40.07 3.813 2.628 8.035 3.552 14.02 1.56 4.342 2.524 8.776 4.45 21.06 4.45 12.171-0.152 26.176 0.412 38.52-7.53 -1.87 2.622-6.118 7.154-9.46 9.18 3.479-0.736 5.975-2.137 9.09-5.84 -0.957 1.915-2.083 4.814-2.17 5.16 0.15-0.18 2.15-2.57 3.51-4.7 -0.653 7.945 2.894 12.597 6.98 19.4 8.956 14.163 3.511 33.521 8.33 45.96 3.09-4.996 7.04-12.086 7.04-17.75 5.21-9.086 5.956-21.111 3.39-26.75C168.587 38.924 167.533 26.708 155.579 12.925zM46.789-2.465c0.488 1.389 0.595 1.359 2.49 3.61 -0.94-0.195-1.565-0.332-2.13-0.46C46.93-0.371 46.789-1.375 46.789-2.465zM44.279-5.125c0.094 1.532 0.459 3.542 0.99 5.31 -2.865-0.737-1.8-0.504-2.8-0.8C43.292-3.089 43.602-3.715 44.279-5.125zM45.999 95.095c-4.216-7.605-5.323-10.191-6.49-17.89 -0.114-0.886-0.472-3.446-0.49-4.67 -6.07-13.88-8.352-40.236 1.21-54.74 0-0.01 0-0.01 0-0.01s0.399-0.624 1.12-1.52c-0.267-1.344-0.531-4.18-0.44-7.28 0.74 1.32 1.58 2.52 2.33 3.67 0-0.003 0.59 0.781 0.59 0.8 4.551 5.79 8.754 10.604 18.92 17.75C50.544 50.979 51.301 44.3 45.999 95.095zM163.639 48.206c-0.356 2.358-1.123 5.583-1.539 6.99 2.78 7.068-0.257 20.417-3.061 26.38 -1.226 7.093-2.545 8.521-6.01 15.59 -2.477-11 2.583-30.519-6.76-45.08 -6.059-10.044-8.657-11.36-7.23-23.77 0 0 0.061-0.675 0.08-0.85 -12.628 7.721-26.576 8.594-44.97 8.2 -5.317 0-12.5-0.668-16.98-3.44 -9.081 2.583-12.45-1.437-20.01-7.34 -8.163-6.937-13.709-12.994-20.55-27.27 3.843 3.118 11.537 4.689 16.39 5.5 -3.273-4.363-5.199-8.349-6.07-14 3.48 2.32 11.82 4.603 19.17 3.79 13.534-1.271 32.484-15.167 55.77-4.63 10.804 4.767 16.286 11.476 17.57 15 0.01 0 0.02 0.01 0.04 0.01 0.06 0.02 0.12 0.03 0.189 0.04 0.017 0.018 0.332 0.09 0.36 0.09 6.976 2.325 7.443 2.759 14.2 10.64C158.026 18.715 167.168 28.016 163.639 48.206z" fill="#000000" stroke-width="none" opacity="1"/>
          </g>
          <g id="svga-group-glasses-single-move" transform="matrix(1,0,0,1,0,0)">
            <g id="svga-group-glasses-single" transform="matrix(1,0,0,1,0,0)">
              <path id="SvgjsPath3917" d="M100,18.13L100,18.13L100,18.13L100,18.13z" fill="#26120b" stroke-width="none" opacity="1"/>
            </g>
          </g>
        </g>
      </g>
    </g>
    <rect id="SvgjsRect3475" width="200" height="15" x="0" y="185" fill="#ecf0f1" opacity="0.5" style="display: none;"/>
    <text id="SvgjsText3476" font-family="Roboto, Helvetica, Arial, sans-serif" font-size="10px" text-anchor="start" font-weight="400" anchor="start" fill="#333333" x="57.984375" y="182.4296875" style="display: none;">
      <tspan id="SvgjsTspan3477" dy="13" x="57.984375">Created on face.co</tspan>
    </text>
  </g>
</svg>
